<?xml version="1.0" encoding="utf-8"?>
<!-- Generator: Adobe Illustrator 15.0.0, SVG Export Plug-In . SVG Version: 6.00 Build 0)  -->
<!DOCTYPE svg PUBLIC "-//W3C//DTD SVG 1.1//EN" "http://www.w3.org/Graphics/SVG/1.1/DTD/svg11.dtd">
<svg version="1.1" id="Capa_1" xmlns="http://www.w3.org/2000/svg" xmlns:xlink="http://www.w3.org/1999/xlink" x="0px" y="0px"
	 width="841.89px" height="595.28px" viewBox="0 0 841.89 595.28" enable-background="new 0 0 841.89 595.28" xml:space="preserve">
<g>
	<path d="M124.662,296.044c0-13.767-4.692-21.029-14.072-21.788c-9.383,0.759-14.071,8.021-14.071,21.788v51.065H51.125v-49.703
		c0-19.215,5.369-34.193,16.114-44.939c10.895-10.894,25.342-16.341,43.35-16.341c14.675,0,26.931,3.557,36.769,10.667
		c10.287-7.11,22.543-10.667,36.768-10.667c18.306,0,32.757,5.447,43.35,16.341c10.895,10.594,16.341,25.572,16.341,44.939v49.703
		h-45.619v-51.065c0-13.767-4.691-21.029-14.071-21.788c-9.384,0.759-14.072,8.021-14.072,21.788v51.065h-45.392V296.044z"/>
	<path d="M275.134,221.146c-17.855,0-26.707-8.699-26.554-26.101c-0.153-17.398,8.698-26.101,26.554-26.101
		c17.853,0,26.629,8.703,26.328,26.101C301.763,212.447,292.987,221.146,275.134,221.146z M299.193,347.109H250.85v-89.422
		c0-15.281,8.018-22.924,24.058-22.924c16.188,0,24.285,7.643,24.285,22.924V347.109z"/>
	<path d="M351.619,347.109h-45.393v-49.703c0-19.215,5.369-34.193,16.114-44.939c10.895-10.894,25.342-16.341,43.35-16.341
		c18.005,0,32.456,5.447,43.349,16.341c10.895,10.594,16.342,25.572,16.342,44.939v49.703h-45.619v-51.065
		c0-13.767-4.692-21.029-14.072-21.788c-9.383,0.759-14.071,8.021-14.071,21.788V347.109z"/>
	<path d="M456.701,221.146c-17.855,0-26.707-8.699-26.555-26.101c-0.152-17.398,8.699-26.101,26.555-26.101
		c17.852,0,26.629,8.703,26.328,26.101C483.33,212.447,474.553,221.146,456.701,221.146z M480.76,347.109h-48.344v-89.422
		c0-15.281,8.018-22.924,24.059-22.924c16.188,0,24.285,7.643,24.285,22.924V347.109z"/>
	<path d="M533.186,347.109h-45.393v-49.703c0-19.215,5.369-34.193,16.113-44.939c10.895-10.894,25.342-16.341,43.35-16.341
		c18.006,0,32.457,5.447,43.35,16.341c10.895,10.594,16.342,25.572,16.342,44.939v49.703h-45.619v-51.065
		c0-13.767-4.691-21.029-14.072-21.788c-9.383,0.759-14.07,8.021-14.07,21.788V347.109z"/>
	<g>
		<g>
			<path fill="#A30157" d="M641.09,245.429c8.507-5.915,17.086-5.546,26.786-4.121c7.166,1.053,13.451,5.905,19.839,9.025
				c7.823,3.82,13.479,8.203,18.961,14.985c4.933,6.103,9.566,12.633,12.959,19.73c5.515,11.535,8.893,24.417,10.619,37.047
				c1.453,10.631,2.564,27.687-8.359,34.034c-1.601,0.93,0.817,1.31,1.695,0.799c11.175-6.493,10.823-22.088,9.676-33.286
				c-1.466-14.303-5.569-29.317-12.271-42.084c-4.335-8.258-10.233-16.151-16.58-22.966c-5.997-6.439-14.56-9.231-22.053-13.436
				c-13.184-7.398-29.942-9.584-42.967-0.527C637.872,245.688,640.235,246.023,641.09,245.429L641.09,245.429z"/>
		</g>
	</g>
	<g>
		<g>
			<path fill="#A30157" d="M636.757,248.429c8.507-5.915,17.086-5.546,26.786-4.121c7.166,1.053,13.451,5.905,19.839,9.025
				c7.823,3.82,13.479,8.203,18.961,14.985c4.933,6.103,9.566,12.633,12.959,19.73c5.515,11.535,8.893,24.417,10.619,37.047
				c1.453,10.631,2.564,27.687-8.359,34.034c-1.601,0.93,0.817,1.31,1.695,0.799c11.175-6.493,10.823-22.088,9.676-33.286
				c-1.466-14.303-5.569-29.317-12.271-42.084c-4.335-8.258-10.233-16.151-16.58-22.966c-5.997-6.439-14.56-9.231-22.053-13.436
				c-13.184-7.398-29.942-9.584-42.967-0.527C633.539,248.688,635.902,249.023,636.757,248.429L636.757,248.429z"/>
		</g>
	</g>
	<g>
		<g>
			<path fill="#A30157" d="M644.764,242.27c29.934-14.217,62.231,13.345,75.627,38.502c5.907,11.094,10.869,22.848,13.847,35.079
				c2.797,11.497,3.944,25.624-4.76,34.938c-0.744,0.796,1.98,0.569,2.529-0.018c8.951-9.579,7.694-23.834,4.968-35.653
				c-3.13-13.57-9.083-26.602-15.831-38.729c-14.157-25.443-48.005-49.072-77.423-35.1
				C641.992,242.109,643.6,242.823,644.764,242.27L644.764,242.27z"/>
		</g>
	</g>
	<g>
		<g>
			<path fill="#A30157" d="M640.43,244.27c29.934-14.217,62.231,13.345,75.627,38.502c5.907,11.094,10.869,22.848,13.847,35.079
				c2.797,11.497,3.944,25.624-4.76,34.938c-0.744,0.796,1.98,0.569,2.529-0.018c8.951-9.579,7.694-23.834,4.968-35.653
				c-3.13-13.57-9.083-26.602-15.831-38.729c-14.157-25.443-48.005-49.072-77.423-35.1
				C637.658,244.109,639.266,244.823,640.43,244.27L640.43,244.27z"/>
		</g>
	</g>
	<g>
		<g>
			<path fill="#A30157" d="M633.764,248.936c29.934-14.217,62.231,13.345,75.627,38.502c5.907,11.094,10.869,22.848,13.847,35.079
				c2.797,11.497,3.944,25.624-4.76,34.938c-0.744,0.796,1.98,0.569,2.529-0.018c8.951-9.579,7.694-23.834,4.968-35.653
				c-3.13-13.57-9.083-26.602-15.831-38.729c-14.157-25.443-48.005-49.072-77.423-35.1
				C630.992,248.775,632.6,249.489,633.764,248.936L633.764,248.936z"/>
		</g>
	</g>
	<g>
		<g>
			<path fill="#A30157" d="M717.756,268.514c12.822,22.269,26.488,47.693,20.203,74.196c-0.23,0.972,2.52,0.536,2.732-0.361
				c6.318-26.641-7.297-52.165-20.197-74.569C719.98,266.887,717.355,267.818,717.756,268.514L717.756,268.514z"/>
		</g>
	</g>
	<g>
		<g>
			<path fill="#A30157" d="M651.891,236.975c1.674,0.182,3.495-0.373,5.138-0.621c4.233-0.637,8.495-0.849,12.771-0.668
				c14.825,0.624,28.397,7.358,39.339,17.114c12.553,11.191,21.113,26.563,27.634,41.871c5.427,12.741,11.642,30.462,4.855,43.798
				c-0.356,0.701,2.313,0.437,2.729-0.379c6.687-13.143,0.784-30.204-4.304-42.843c-6.265-15.563-15.079-30.73-27.219-42.424
				c-10.394-10.011-23.711-16.617-38.063-18.272c-4.641-0.535-9.33-0.458-13.972-0.004c-2.144,0.209-5.28,1.246-7.205,1.037
				C652.811,235.499,650.385,236.812,651.891,236.975L651.891,236.975z"/>
		</g>
	</g>
	<g>
		<g>
			<path fill="#A30157" d="M665.858,231.734c23.12-1.664,47.988,11.716,63.062,28.577c7.444,8.328,11.891,18.975,15.301,29.48
				c3.938,12.134,6.246,25.583,3.388,38.188c-0.291,1.287,2.505,0.924,2.768-0.234c2.912-12.845,0.425-26.311-3.417-38.688
				c-3.627-11.687-8.97-22.92-17.354-31.932c-15.36-16.51-40.584-28.951-63.479-27.303
				C664.62,229.933,663.984,231.869,665.858,231.734L665.858,231.734z"/>
		</g>
	</g>
	<g>
		<g>
			<path fill="#A30157" d="M657.207,234.791c7.574-0.773,15.02-1.44,22.634-0.714c8.995,0.858,16.367,4.475,23.666,9.601
				c8.4,5.9,16.058,13.152,22.938,20.776c16.408,18.178,24.144,41.999,18.493,66.177c-0.315,1.349,2.489,1.02,2.775-0.203
				c5.869-25.112-2.602-49.546-19.707-68.224c-7.834-8.555-16.66-16.519-26.396-22.82c-13.504-8.738-28.758-8.19-44.165-6.616
				C655.91,232.924,655.342,234.981,657.207,234.791L657.207,234.791z"/>
		</g>
	</g>
	<g>
		<g>
			<path fill="#A30157" d="M650.234,238.909c28.993-9.395,59.586,13.799,73.4,37.721c6.181,10.704,11.004,22.328,14.34,34.223
				c2.79,9.951,5.493,22.827,0.162,32.398c-0.27,0.483,2.306,0.283,2.711-0.443c5.608-10.069,2.438-23.511-0.474-33.897
				c-3.686-13.142-9.463-25.98-16.721-37.534c-14.898-23.715-46.153-42.381-74.403-33.227
				C647.398,238.749,649.14,239.265,650.234,238.909L650.234,238.909z"/>
		</g>
	</g>
	<g>
		<g>
			<path fill="#A30157" d="M649.508,239.854c29.627-6.71,56.615,15.59,70.838,39.888c6.101,10.422,10.368,22.144,13.5,33.768
				c2.598,9.645,6.372,24.438-0.01,33.41c-1.021,1.438,1.543,1.966,2.313,0.885c6.213-8.735,3.516-21.831,1.324-31.456
				c-2.982-13.104-7.969-26.157-14.628-37.841c-6.846-12.013-17.545-23.037-28.703-31.074c-13.283-9.566-29.161-13.188-45.165-9.563
				C647.251,238.261,647.802,240.239,649.508,239.854L649.508,239.854z"/>
		</g>
	</g>
	<g>
		<g>
			<path fill="#A30157" d="M652.55,237.913c12.858-7.63,29.179-2.923,41.899,2.658c9.736,4.271,18.768,10.052,26.059,17.815
				c9.041,9.627,18.182,20.795,21.647,33.751c3.578,13.377,1.826,27.457,3.135,41.093c0.047,0.483,2.806-0.027,2.738-0.734
				c-1.508-15.712,0.6-31.754-4.963-46.879c-2.61-7.098-7.669-13.303-12.306-19.172c-4.048-5.124-8.342-10.243-13.33-14.482
				c-16.726-14.219-46.264-26.383-66.968-14.099C649.315,238.545,652.072,238.195,652.55,237.913L652.55,237.913z"/>
		</g>
	</g>
	<g>
		<g>
			<path fill="#A30157" d="M661.443,232.518c11.785-1.47,23.886,4.375,33.885,9.963c11.211,6.266,21.777,14.398,30.327,24.006
				c16.16,18.161,20.908,48.686,15.973,71.982c-0.199,0.941,2.546,0.483,2.729-0.379c5.151-24.316-0.164-54.675-16.918-73.503
				c-9.01-10.125-20.521-18.278-32.378-24.722c-9.91-5.385-21.707-10.168-33.209-8.734
				C660.581,231.29,659.536,232.755,661.443,232.518L661.443,232.518z"/>
		</g>
	</g>
	<g>
		<g>
			<path fill="#E8D400" d="M615.623,299.646c7.122,9.445,14.731,17.791,25.844,22.475c14.099,5.941,29.555,5.617,44.533,6.231
				c6.647,0.273,13.062,1.404,19.716,0.492c5.244-0.72,10.208-2.717,15.015-4.846c6.295-2.788,12.896-3.995,18.612-8.024
				c6.048-4.262,9.099-11.517,15.825-14.865c1.619-0.806-0.943-0.641-1.57-0.328c-4.112,2.047-6.967,5.035-9.773,8.615
				c-4.851,6.187-10.886,9.49-18.288,11.882c-6.7,2.164-12.82,5.7-19.888,6.67c-6.503,0.892-13.141-0.492-19.647-0.76
				c-14.725-0.604-29.377-0.69-43.199-6.516c-10.443-4.401-17.775-12.921-24.44-21.761
				C617.868,298.258,615.434,299.395,615.623,299.646L615.623,299.646z"/>
		</g>
	</g>
	<g>
		<g>
			<path fill="#E8D400" d="M615.983,295.862c14.694,24.801,47.513,36.438,74.816,38.552c27.357,2.118,57.706-7.25,66.824-35.759
				c0.378-1.185-2.412-0.85-2.764,0.248c-9.196,28.756-40.313,36.124-67.26,33.267c-25.468-2.701-55.452-14.44-69.1-37.474
				C617.923,293.722,615.292,294.695,615.983,295.862L615.983,295.862z"/>
		</g>
	</g>
	<g>
		<g>
			<path fill="#E8D400" d="M616.104,305.129c-0.107,12.066,12.346,18.549,22.029,22.501c13.544,5.529,28.329,8.15,42.734,10.29
				c25.973,3.858,65.631,3.315,75.187-27.225c0.479-1.529-2.252-1.518-2.623-0.332c-9.146,29.229-46.831,29.165-71.624,25.533
				c-12.853-1.882-25.706-4.35-38.004-8.602c-9.917-3.43-25.034-9.792-24.922-22.365
				C618.894,303.473,616.115,303.87,616.104,305.129L616.104,305.129z"/>
		</g>
	</g>
	<g>
		<g>
			<path fill="#E8D400" d="M617.623,315.146c2.788,13.098,12.674,25.438,24.502,31.636c12.651,6.629,28.645,3.832,42.241,3.018
				c11.609-0.696,23.352-0.376,34.661-3.483c10.702-2.94,18.932-9.779,24.413-19.345c0.309-0.538-2.288-0.328-2.717,0.42
				c-6.202,10.823-15.583,16.931-27.763,19.161c-10.426,1.91-21.236,1.502-31.779,2.228c-13.099,0.901-27.504,2.641-39.207-4.597
				c-10.483-6.482-19.038-17.674-21.613-29.771C620.201,313.659,617.451,314.338,617.623,315.146L617.623,315.146z"/>
		</g>
	</g>
	<g>
		<g>
			<path fill="#E8D400" d="M618.373,313.146c4.388,25.517,38.98,31.177,60.013,32.612c14.014,0.957,27.946-0.569,41.027-5.894
				c14.452-5.882,26.068-16.696,36.243-28.239c0.779-0.885-1.975-0.694-2.547-0.045c-9.865,11.193-20.914,21.239-34.771,27.184
				c-12.641,5.422-26.431,6.313-39.985,5.388c-20.305-1.386-53.051-7.365-57.241-31.74
				C620.953,311.493,618.202,312.15,618.373,313.146L618.373,313.146z"/>
		</g>
	</g>
	<g>
		<g>
			<path fill="#E8D400" d="M618.373,317.396c5.604,13.9,15.793,23.319,30.296,27.224c13.672,3.68,30.292,3.431,44.155,0.924
				c13.535-2.446,26.843-7.515,39.025-13.821c9.574-4.957,22.663-12.519,25.023-24.07c0.257-1.258-2.533-0.866-2.762,0.254
				c-2.35,11.503-16.167,18.714-25.644,23.501c-11.057,5.586-23.08,9.931-35.257,12.281c-13.23,2.556-28.628,2.461-41.767-0.505
				c-14.491-3.271-24.833-12.88-30.333-26.521C620.651,315.522,617.938,316.317,618.373,317.396L618.373,317.396z"/>
		</g>
	</g>
	<g>
		<g>
			<path fill="#E8D400" d="M616.477,308.835c4.933,4.308,7.853,10.472,13.203,14.368c5.785,4.214,14.101,6.402,20.898,8.275
				c15.198,4.188,32.101,2.881,47.304-0.545c21.917-4.94,53.756-17.263,59.234-42.057c0.25-1.13-2.524-0.709-2.748,0.305
				c-5.212,23.582-34.97,34.856-55.693,39.952c-14.945,3.675-31.451,4.635-46.448,0.753c-7.057-1.826-14.073-4.419-20.388-8.082
				c-5.41-3.139-8.176-10.016-12.831-14.081C618.223,307.038,615.651,308.115,616.477,308.835L616.477,308.835z"/>
		</g>
	</g>
	<g>
		<g>
			<path fill="#E8D400" d="M616.235,291.87c16.738,23.765,43.689,32.062,71.629,33.028c15.065,0.521,30.44-1.076,44.037-7.987
				c6.211-3.157,11.645-7.674,16.592-12.537c3.904-3.838,6.063-9.064,8.802-13.711c0.761-1.29-2.025-1.253-2.605-0.268
				c-2.466,4.184-4.451,8.68-7.657,12.37c-4.79,5.516-11.306,10.068-17.766,13.353c-13.653,6.939-29.858,7.454-44.834,6.677
				c-25.875-1.342-50.325-10.301-65.684-32.106C618.065,289.718,615.445,290.748,616.235,291.87L616.235,291.87z"/>
		</g>
	</g>
	<g>
		<g>
			<path fill="#E8D400" d="M615.901,288.537c16.738,23.765,43.689,32.062,71.629,33.028c15.065,0.521,30.44-1.076,44.037-7.987
				c6.211-3.157,11.645-7.674,16.592-12.537c3.904-3.838,6.063-9.064,8.802-13.711c0.761-1.29-2.025-1.253-2.605-0.268
				c-2.466,4.184-4.451,8.68-7.657,12.37c-4.79,5.516-11.306,10.068-17.766,13.353c-13.653,6.939-29.858,7.454-44.834,6.677
				c-25.875-1.342-50.325-10.301-65.684-32.106C617.731,286.385,615.111,287.415,615.901,288.537L615.901,288.537z"/>
		</g>
	</g>
	<g>
		<g>
			<path fill="#E8D400" d="M615.454,285.497c16.738,23.765,43.689,32.062,71.629,33.028c15.065,0.521,30.44-1.076,44.037-7.987
				c6.211-3.157,11.645-7.674,16.592-12.537c3.904-3.838,6.063-9.064,8.802-13.711c0.761-1.29-2.025-1.253-2.605-0.268
				c-2.466,4.184-4.451,8.68-7.657,12.37c-4.79,5.516-11.306,10.068-17.766,13.353c-13.653,6.939-29.858,7.454-44.834,6.677
				c-25.875-1.342-50.325-10.301-65.684-32.106C617.284,283.345,614.664,284.375,615.454,285.497L615.454,285.497z"/>
		</g>
	</g>
	<g>
		<g>
			<path fill="#E8D400" d="M616.121,283.164c16.738,23.765,43.689,32.062,71.629,33.028c15.065,0.521,30.44-1.076,44.037-7.987
				c6.211-3.157,11.645-7.674,16.592-12.537c3.904-3.838,6.063-9.064,8.802-13.711c0.761-1.29-2.025-1.253-2.605-0.268
				c-2.466,4.184-4.451,8.68-7.657,12.37c-4.79,5.516-11.306,10.068-17.766,13.353c-13.653,6.939-29.858,7.454-44.834,6.677
				c-25.875-1.342-50.325-10.301-65.684-32.106C617.951,281.012,615.331,282.042,616.121,283.164L616.121,283.164z"/>
		</g>
	</g>
	<g>
		<g>
			<path fill="#E8D400" d="M616.484,308.863c7.935,13.617,18.388,24.338,33.899,28.447c5.166,1.369,10.439,2.358,15.621,3.677
				c8.923,2.269,18.432,2.149,27.563,2.763c14.354,0.964,27.862-4.967,39.485-13.02c11.788-8.166,23.494-20.792,24.32-35.824
				c0.074-1.351-2.701-0.899-2.764,0.246c-0.806,14.653-12.037,26.342-23.34,34.45c-6.208,4.454-13.147,7.96-20.411,10.317
				c-7.486,2.431-14.461,2.042-22.188,1.604c-12.531-0.713-24.534-2.909-36.68-5.958c-15.146-3.802-25.331-14.728-32.991-27.87
				C618.428,306.713,615.798,307.687,616.484,308.863L616.484,308.863z"/>
		</g>
	</g>
	<g>
		<g>
			<path fill="#E8D400" d="M617.979,316.099c12.353,23.04,43.137,30.745,67.359,30.729c11.802-0.009,25.821-1.043,36.14-7.19
				c14.007-8.344,24.517-22.691,31.735-36.96c0.653-1.292-2.11-1.12-2.584-0.186c-7.01,13.856-16.279,25.045-28.596,34.536
				c-5.744,4.428-12.581,5.709-19.595,6.581c-6.12,0.762-12.16,1.504-18.339,1.436c-23.11-0.259-51.903-8.274-63.596-30.084
				C620.008,314.033,617.363,314.947,617.979,316.099L617.979,316.099z"/>
		</g>
	</g>
	<g>
		<g>
			<path fill="#E8D400" d="M618.646,317.765c12.353,23.04,43.137,30.745,67.359,30.729c11.802-0.009,25.821-1.043,36.14-7.19
				c14.007-8.344,24.517-22.691,31.735-36.96c0.653-1.292-2.11-1.12-2.584-0.186c-7.01,13.856-16.279,25.045-28.596,34.536
				c-5.744,4.428-12.581,5.709-19.595,6.581c-6.12,0.762-12.16,1.504-18.339,1.436c-23.11-0.259-51.903-8.274-63.596-30.084
				C620.674,315.699,618.029,316.613,618.646,317.765L618.646,317.765z"/>
		</g>
	</g>
	<g>
		<g>
			<path fill="#E8D400" d="M619.979,319.765c12.353,23.04,43.137,30.745,67.359,30.729c11.802-0.009,25.821-1.043,36.14-7.19
				c14.007-8.344,24.517-22.691,31.735-36.96c0.653-1.292-2.11-1.12-2.584-0.186c-7.01,13.856-16.279,25.045-28.596,34.536
				c-5.744,4.428-12.581,5.709-19.595,6.581c-6.12,0.762-12.16,1.504-18.339,1.436c-23.11-0.259-51.903-8.274-63.596-30.084
				C622.008,317.699,619.363,318.613,619.979,319.765L619.979,319.765z"/>
		</g>
	</g>
	<g>
		<g>
			<path fill="#E8D400" d="M615.873,301.646c0.921,4.989,5.195,8.848,8.894,11.95c5.725,4.804,12.314,8.599,18.881,12.116
				c13.12,7.026,27.608,13.507,42.293,16.387c12.067,2.367,25.595-4.115,36.183-9.095c7.876-3.703,15.465-8.156,22.355-13.481
				c5.172-3.996,10.602-9.038,12.625-15.445c0.252-0.798-2.463-0.419-2.723,0.402c-1.953,6.186-7.137,10.829-12.056,14.749
				c-6.652,5.299-14.206,9.479-21.85,13.153c-11.565,5.56-24.095,10.755-36.933,7.443c-13.443-3.468-26.502-9.337-38.704-15.872
				c-6.135-3.286-12.108-6.974-17.515-11.371c-3.655-2.974-7.818-6.825-8.713-11.671
				C618.465,300.122,615.713,300.776,615.873,301.646L615.873,301.646z"/>
		</g>
	</g>
	<g>
		<g>
			<path fill="#E8D400" d="M615.743,293.897c12.638,22.339,42.046,31.172,65.959,33.344c23.541,2.139,53.929-2.001,68.097-23.394
				c0.975-1.471-1.576-2-2.313-0.887c-13.811,20.852-43.189,24.162-66.012,22.089c-22.988-2.089-51.139-11.011-63.233-32.389
				C617.599,291.524,615.006,292.595,615.743,293.897L615.743,293.897z"/>
		</g>
	</g>
	<g>
		<g>
			<path fill="#E8D400" d="M649.188,321.39c8.504,5.844,19.311,8.477,29.265,10.547c9.567,1.99,19.586,3.323,29.306,1.772
				c10.806-1.724,21.057-7.65,29.741-14.045c8.469-6.236,16.684-14.496,19.876-24.751c0.381-1.225-2.416-0.897-2.768,0.232
				c-3.176,10.204-11.717,18.058-20.068,24.207c-8.544,6.292-18.64,11.428-29.242,12.864c-9.117,1.235-19.022-0.69-27.903-2.626
				c-8.886-1.937-18.502-4.525-26.083-9.734C650.362,319.204,647.93,320.525,649.188,321.39L649.188,321.39z"/>
		</g>
	</g>
	<g>
		<g>
			<path fill="#328D2E" d="M619.601,310.319c5.331-9.367,14.553-15.794,23.772-20.944c10.796-6.031,22.636-10.25,34.586-13.313
				c11.83-3.033,24.385-4.711,36.549-5.64c13.96-1.067,27.413,1.298,38.453,10.355c0.651,0.534,3.139-0.523,2.563-0.996
				c-10.619-8.712-23.298-11.279-36.764-10.84c-13.662,0.445-27.83,2.763-41.091,6.036c-12.466,3.076-24.641,7.711-35.929,13.831
				c-9.688,5.254-19.312,12.186-24.856,21.931C616.573,311.283,619.174,311.07,619.601,310.319L619.601,310.319z"/>
		</g>
	</g>
	<g>
		<g>
			<path fill="#328D2E" d="M618.797,305.172c2.049-5.5,7.524-9.76,11.904-13.351c4.939-4.05,10.266-7.763,15.84-10.887
				c6.72-3.767,14.422-5.957,21.764-8.147c6.28-1.875,12.645-3.687,19.16-4.502c11.282-1.411,22.76-1.795,34.119-1.729
				c5.765,0.033,11.545,0.29,17.269,1c3.259,0.404,8.616,0.778,10.884,3.569c0.765,0.94,3.375-0.129,2.512-1.191
				c-1.939-2.386-5.473-3.047-8.311-3.648c-5.998-1.271-12.263-1.47-18.37-1.623c-12.595-0.317-25.331,0.185-37.845,1.675
				c-6.224,0.74-12.256,2.449-18.273,4.156c-8.142,2.31-16.627,4.84-24.106,8.883c-6.197,3.35-11.985,7.59-17.423,12.048
				c-4.405,3.612-9.684,7.963-11.732,13.463C615.643,306.35,618.387,306.275,618.797,305.172L618.797,305.172z"/>
		</g>
	</g>
	<g>
		<g>
			<path fill="#328D2E" d="M618.213,300.455c2.137-5.77,7.669-10.371,12.19-14.259c4.769-4.102,9.951-8.004,15.506-10.979
				c7.289-3.905,15.739-6.121,23.655-8.367c5.496-1.559,10.982-2.979,16.657-3.654c11.043-1.314,22.25-1.704,33.362-1.64
				c5.765,0.033,11.545,0.29,17.269,1c3.259,0.404,8.616,0.778,10.884,3.569c0.765,0.94,3.375-0.129,2.512-1.191
				c-1.939-2.386-5.473-3.047-8.311-3.648c-5.641-1.196-11.518-1.42-17.262-1.596c-12.711-0.389-25.56,0.123-38.196,1.557
				c-5.935,0.674-11.65,2.194-17.402,3.785c-8.432,2.332-17.336,4.86-25.088,9.014c-5.909,3.166-11.313,7.446-16.377,11.801
				c-4.539,3.903-9.873,8.557-12.009,14.324C615.062,301.634,617.805,301.559,618.213,300.455L618.213,300.455z"/>
		</g>
	</g>
	<g>
		<g>
			<path fill="#328D2E" d="M618.841,306.781c2.222-8.936,12.104-14.039,19.725-17.666c10.285-4.897,21.353-8.168,32.323-11.127
				c25.904-6.988,55.311-15.169,80.562-2.004c0.697,0.364,2.871-0.769,2.584-0.918c-26.093-13.604-56.614-5.009-83.358,2.127
				c-11.821,3.153-23.619,6.817-34.688,12.086c-7.653,3.644-17.624,9.065-19.845,17.998
				C616.008,307.822,618.677,307.442,618.841,306.781L618.841,306.781z"/>
		</g>
	</g>
	<g>
		<g>
			<path fill="#328D2E" d="M619.095,308.047c14.291-19.453,36.15-32.783,59.76-37.454c10.15-2.008,20.365-4.05,30.557-5.871
				c13.38-2.393,27.019-2.467,39.293,4.032c0.722,0.382,2.964-0.744,2.576-0.949c-10.828-5.733-22.854-6.676-34.86-5.13
				c-13.343,1.719-26.896,4.635-40.048,7.458c-23.637,5.074-45.656,18.878-59.982,38.379
				C616.165,308.817,618.607,308.71,619.095,308.047L619.095,308.047z"/>
		</g>
	</g>
	<g>
		<g>
			<path fill="#328D2E" d="M618.603,292.326c0.724-3.589,5.978-6.221,8.767-7.918c5.685-3.458,11.761-6.305,17.831-9.007
				c9.474-4.217,19.032-8.079,29.262-9.878c12.475-2.194,24.938-4.432,37.553-5.674c7.005-0.689,14.122-1.057,21.142-0.39
				c4.466,0.425,9.847,1.352,12.806,5.073c0.503,0.632,3.129-0.293,2.561-1.008c-6.509-8.188-23.286-5.965-32.192-5.301
				c-14.442,1.077-28.692,3.79-42.938,6.276c-10.902,1.902-21.225,6.401-31.272,10.927c-6.143,2.767-12.224,5.756-17.942,9.329
				c-2.771,1.73-7.574,4.401-8.295,7.976C615.707,293.602,618.439,293.134,618.603,292.326L618.603,292.326z"/>
		</g>
	</g>
	<g>
		<g>
			<path fill="#328D2E" d="M619.028,285.351c11.718-15.333,33.603-23.09,52.177-25.078c10.093-1.081,20.395-1.093,30.533-1.989
				c11.504-1.017,23.425-1.844,34.604,1.646c0.967,0.303,3.229-1.111,1.645-1.605c-11.063-3.455-22.817-2.784-34.217-1.863
				c-6.677,0.539-13.334,1.264-20.023,1.647c-5.374,0.309-10.651,0.203-15.998,0.957c-18.461,2.602-39.662,10.925-51.292,26.143
				C615.652,286.26,618.436,286.127,619.028,285.351L619.028,285.351z"/>
		</g>
	</g>
	<g>
		<g>
			<path fill="#328D2E" d="M620.133,280.792c13.298-15.058,30.05-23.917,49.294-29.063c11.659-3.117,22.821-4.191,34.853-3.147
				c11.45,0.994,22.765,3.059,34.286,3.169c1.088,0.011,2.895-1.627,1.041-1.645c-12.712-0.122-25.229-2.506-37.879-3.461
				c-11.779-0.889-22.834,0.971-34.177,4.004c-19.285,5.157-36.344,14.569-49.633,29.618
				C616.828,281.501,619.486,281.524,620.133,280.792L620.133,280.792z"/>
		</g>
	</g>
	<g>
		<g>
			<path fill="#328D2E" d="M625.968,278.354c9.834-13.335,28.981-20.093,44.45-23.845c9.452-2.293,19.175-2.145,28.842-2.173
				c11.771-0.034,23.538,0.345,35.309,0.364c1.528,0.003,2.131-1.901,0.27-1.904c-22.134-0.036-45.685-2.985-67.351,2.551
				c-15.303,3.91-34.072,11.092-43.791,24.272C622.672,279.008,625.266,279.307,625.968,278.354L625.968,278.354z"/>
		</g>
	</g>
	<g>
		<g>
			<path fill="#328D2E" d="M620.381,279.057c10.716-16.722,33.734-23.873,51.865-28.56c18.557-4.795,39.42-8.282,58.586-5.52
				c0.656,0.095,3.18-1.011,1.75-1.217c-20.284-2.924-42.211,0.998-61.827,6.067c-18.64,4.817-42.108,12.547-53.085,29.674
				C617.401,279.922,619.929,279.762,620.381,279.057L620.381,279.057z"/>
		</g>
	</g>
	<g>
		<g>
			<path fill="#328D2E" d="M624.755,268.512c4.847-7.247,13.742-10.99,21.591-13.983c9.423-3.593,19.369-5.928,29.272-7.742
				c8.997-1.648,18.104-2.889,27.249-3.215c10.431-0.373,22.026,0.035,31.523,4.824c0.71,0.358,3.242-0.709,2.203-1.232
				c-9.448-4.765-20.774-5.169-31.149-5.023c-10.281,0.145-20.539,1.683-30.636,3.533c-10.454,1.915-20.81,4.594-30.746,8.383
				c-7.947,3.03-16.947,7.186-21.833,14.491C621.586,269.51,624.313,269.174,624.755,268.512L624.755,268.512z"/>
		</g>
	</g>
	<g>
		<g>
			<path fill="#328D2E" d="M617.769,295.572c28.382-31.026,71.498-29.771,110.241-29.754c1.527,0.001,2.132-1.902,0.27-1.902
				c-39.788-0.019-83.696-0.874-112.782,30.922C614.342,296.102,616.983,296.431,617.769,295.572L617.769,295.572z"/>
		</g>
	</g>
	<g>
		<g>
			<path fill="#328D2E" d="M618.928,298.912c0.712-9.385,11.154-14.575,18.698-17.877c10.315-4.516,21.531-7.136,32.57-9.159
				c10.438-1.913,21.095-2.659,31.661-3.484c15.829-1.236,32.804-1.762,47.772,4.347c0.742,0.303,2.813-0.825,2.584-0.918
				c-14.984-6.115-31.749-5.688-47.611-4.598c-12.292,0.844-24.636,1.896-36.744,4.23c-11.525,2.223-23.055,5.287-33.769,10.145
				c-7.46,3.382-17.206,8.893-17.9,18.049C616.164,299.986,618.868,299.702,618.928,298.912L618.928,298.912z"/>
		</g>
	</g>
	<g>
		<g>
			<path fill="#328D2E" d="M620.461,288.279c-0.792-10.837,10.141-17.353,18.685-21.191c13.19-5.926,27.923-8.576,42.194-10.254
				c14.188-1.669,28.681-2.128,42.901-0.589c5.962,0.646,21.034,1.744,22.882,9.401c0.255,1.057,2.997,0.34,2.738-0.734
				c-1.79-7.416-14.631-8.942-20.563-9.835c-14.104-2.122-28.649-1.718-42.81-0.418c-14.913,1.369-29.954,4.072-44.018,9.328
				c-9.186,3.432-20.314,8.833-23.985,18.658c-0.761,2.037-0.92,4.217-0.763,6.368C617.797,290.022,620.544,289.417,620.461,288.279
				L620.461,288.279z"/>
		</g>
	</g>
	<g>
		<g>
			<path fill="#328D2E" d="M622.013,287.266c20.799-7.731,38.063-24.465,60.712-27.03c9.147-1.036,18.294-1.994,27.508-2.125
				c9.345-0.132,20.017,0.322,28.097,5.568c0.627,0.407,2.877-0.717,2.588-0.904c-7.606-4.938-17.311-5.545-26.129-5.703
				c-9.97-0.179-19.944,0.914-29.835,2.038c-24.202,2.751-41.731,19.411-63.86,27.637
				C619.256,287.429,621.012,287.638,622.013,287.266L622.013,287.266z"/>
		</g>
	</g>
	<g>
		<g>
			<path fill="#328D2E" d="M621.149,276.151c7.283-6.091,16.628-9.627,25.521-12.612c11.634-3.904,23.713-6.553,35.831-8.413
				c11.769-1.807,23.766-2.778,35.672-2.208c8.515,0.407,18.588,1.404,25.514,6.9c0.95,0.754,3.347-0.598,2.111-1.578
				c-6.756-5.36-16.302-6.549-24.612-7.181c-12.391-0.942-24.948,0.134-37.217,1.886c-12.806,1.83-25.508,4.688-37.8,8.724
				c-9.352,3.069-19.197,6.851-26.834,13.238C617.908,276.101,620.103,277.027,621.149,276.151L621.149,276.151z"/>
		</g>
	</g>
	<g>
		<g>
			<path fill="#328D2E" d="M618.746,288.231c14.804-16.25,39.466-23.453,60.332-27.372c22.234-4.176,49.352-5.436,69.382,6.915
				c0.728,0.449,3.1-0.66,2.564-0.99c-20.744-12.791-48.467-11.291-71.493-7.147c-21.844,3.932-47.836,11.723-63.293,28.69
				C615.564,289.066,618.249,288.777,618.746,288.231L618.746,288.231z"/>
		</g>
	</g>
	<g>
		<g>
			<path fill="#328D2E" d="M618.362,285.563c14.885-16.347,39.47-23.881,60.469-27.977c21.876-4.266,48.479-5.605,68.22,6.563
				c0.729,0.449,3.1-0.66,2.564-0.99c-20.812-12.828-48.627-11.026-71.629-6.541c-21.571,4.207-46.866,12.275-62.132,29.041
				C615.181,286.399,617.865,286.109,618.362,285.563L618.362,285.563z"/>
		</g>
	</g>
	<g>
		<g>
			<path fill="#328D2E" d="M619.546,284.564c14.341-15.764,37.076-23.805,57.285-28.472c21.763-5.025,48.404-6.813,68.22,5.39
				c0.729,0.448,3.1-0.661,2.564-0.99c-19.937-12.276-46.44-10.737-68.443-6.037c-21.832,4.664-46.683,13.221-62.134,30.205
				C616.364,285.4,619.05,285.11,619.546,284.564L619.546,284.564z"/>
		</g>
	</g>
	<g>
		<g>
			<path fill="#328D2E" d="M622.906,284.269c15.287-5.901,29.177-16.028,45.569-18.735c15.162-2.503,30.765,0.004,46.013,0.092
				c1.001,0.006,2.925-1.505,1.074-1.516c-16.106-0.094-32.277-2.432-48.298,0.213c-16.276,2.687-30.259,13.005-45.429,18.862
				C620.046,283.875,621.688,284.739,622.906,284.269L622.906,284.269z"/>
		</g>
	</g>
	<g>
		<g>
			<path fill="#328D2E" d="M635.1,271.355c10.066-11.072,25.887-13.169,40.063-13.859c13.373-0.651,26.734,0.551,40.104,0.596
				c0.799,0.003,2.985-1.201,1.158-1.207c-15.616-0.053-31.18-1.5-46.785-0.147c-13.291,1.153-27.721,4.519-37.036,14.763
				C631.975,272.192,634.629,271.873,635.1,271.355L635.1,271.355z"/>
		</g>
	</g>
	<g>
		<g>
			<path fill="#328D2E" d="M624.599,268.286c14.313-15.477,38.954-16.64,58.284-20.7c20.721-4.354,43.864-5.027,59.841,11.241
				c0.708,0.72,3.308-0.311,2.537-1.096c-15.003-15.275-37.754-16.76-57.719-12.737c-12.987,2.616-26.082,4.693-38.828,8.379
				c-9.757,2.821-19.315,6.816-26.328,14.399C621.273,268.976,623.945,268.992,624.599,268.286L624.599,268.286z"/>
		</g>
	</g>
	<g>
		<g>
			<path fill="#328D2E" d="M624.599,270.286c14.313-15.477,38.954-16.64,58.284-20.7c20.721-4.354,43.864-5.027,59.841,11.241
				c0.708,0.72,3.308-0.311,2.537-1.096c-15.003-15.275-37.754-16.76-57.719-12.737c-12.987,2.616-26.082,4.693-38.828,8.379
				c-9.757,2.821-19.315,6.816-26.328,14.399C621.273,270.976,623.945,270.992,624.599,270.286L624.599,270.286z"/>
		</g>
	</g>
	<g>
		<g>
			<path fill="#328D2E" d="M622.776,273.592c3.711-6.933,12.542-10.591,19.41-13.432c11.138-4.605,23.032-7.518,34.851-9.746
				c11.745-2.216,23.726-3.616,35.686-3.704c7.865-0.058,17.524-0.054,24.439,4.266c0.826,0.516,3.333-0.66,2.16-1.393
				c-7-4.372-16.626-4.482-24.588-4.542c-12.9-0.096-25.838,1.555-38.493,3.941c-12.276,2.316-24.491,5.507-36.053,10.287
				c-7.128,2.948-16.146,7.033-19.98,14.197C619.557,274.685,622.316,274.451,622.776,273.592L622.776,273.592z"/>
		</g>
	</g>
	<g>
		<g>
			<path fill="#328D2E" d="M618.378,293.171c5.026-21.667,27.584-31.113,47.182-35.649c8.802-2.037,17.813-3.171,26.821-3.753
				c3.106-0.2,9.757-1.069,11.927-0.318c-0.116-0.435-0.232-0.87-0.35-1.305c0.66-0.827,1.72-0.568,0.533-0.564
				c-1.554,0.005-2.111,1.98-0.252,1.975c0.702-0.003,1.521-0.017,2.005-0.624c0.394-0.494,0.272-1.09-0.35-1.305
				c-3.672-1.271-9.521-0.061-13.263,0.167c-9.876,0.604-19.725,2.006-29.351,4.302c-20.119,4.798-42.567,15.276-47.675,37.292
				C615.3,294.709,618.101,294.365,618.378,293.171L618.378,293.171z"/>
		</g>
	</g>
	<g>
		<g>
			<path fill="#328D2E" d="M618.649,287.651c16.415-14.949,36.651-35.26,60.644-34.091c1.324,0.064,2.803-1.895,0.949-1.984
				c-25.247-1.23-46.106,19.075-63.407,34.831C615.464,287.656,617.634,288.576,618.649,287.651L618.649,287.651z"/>
		</g>
	</g>
	<g>
		<g>
			<path fill="#328D2E" d="M618.507,301.271c16.214-18.517,40.179-28.01,63.938-32.18c22.063-3.872,46.036-3.461,67.378,3.813
				c0.767,0.261,3.253-0.893,2.199-1.252c-22.854-7.79-48.286-7.8-71.835-3.458c-23.868,4.401-47.946,14.52-64.209,33.092
				C615.244,302.124,617.974,301.881,618.507,301.271L618.507,301.271z"/>
		</g>
	</g>
	<g>
		<g>
			<path fill="#328D2E" d="M621.507,308.271c16.214-18.517,40.179-28.01,63.938-32.18c22.063-3.872,46.036-3.461,67.378,3.813
				c0.767,0.261,3.253-0.893,2.199-1.252c-22.854-7.79-48.286-7.8-71.835-3.458c-23.868,4.401-47.946,14.52-64.209,33.092
				C618.244,309.124,620.974,308.881,621.507,308.271L621.507,308.271z"/>
		</g>
	</g>
	<g>
		<g>
			<path fill="#328D2E" d="M619.174,308.938c16.214-18.517,40.179-28.01,63.938-32.18c22.063-3.872,46.036-3.461,67.378,3.813
				c0.767,0.261,3.253-0.893,2.199-1.252c-22.854-7.79-48.286-7.8-71.835-3.458c-23.868,4.401-47.946,14.52-64.209,33.092
				C615.911,309.791,618.641,309.548,619.174,308.938L619.174,308.938z"/>
		</g>
	</g>
	<g>
		<g>
			<path fill="#328D2E" d="M618.355,298.561c5.13-5.768,10.14-10.593,17.021-14.252c9.165-4.873,19.321-3.687,29.15-5.97
				c20.327-4.721,40.449-10.022,61.464-10.167c1.111-0.008,2.88-1.704,1.027-1.691c-10.616,0.073-21.143,1.224-31.566,3.23
				c-11.531,2.22-22.862,5.811-34.436,7.721c-10.027,1.655-18.97,1.453-28.148,6.334c-6.743,3.586-11.71,8.579-16.738,14.232
				C615.026,299.238,617.684,299.315,618.355,298.561L618.355,298.561z"/>
		</g>
	</g>
	<g>
		<g>
			<path fill="#328D2E" d="M620.499,310.597c3.328-2.937,6.636-5.882,10.308-8.39c4.544-3.104,9.684-4.942,14.675-7.155
				c11.557-5.125,22.14-10.483,34.725-12.716c22.333-3.96,44.55-5.361,67.214-5.382c1.257-0.001,3.252-1.91,1.16-1.908
				c-24.122,0.021-47.636,1.738-71.393,6.012c-12.27,2.207-22.995,8.124-34.275,13.126c-4.836,2.145-9.607,4.06-14.064,6.95
				c-3.91,2.536-7.379,5.755-10.862,8.828C616.606,311.179,619.666,311.331,620.499,310.597L620.499,310.597z"/>
		</g>
	</g>
	<g>
		<g>
			<path fill="#328D2E" d="M619.258,313.65c3.328-2.937,6.636-5.882,10.308-8.39c4.544-3.104,9.684-4.942,14.675-7.155
				c11.55-5.122,22.116-10.426,34.677-12.718c10.735-1.96,21.464-3.955,32.345-4.922c13.253-1.179,26.498-0.188,39.568,2.158
				c1.086,0.195,3.661-1.483,1.859-1.807c-12.598-2.261-25.235-3.222-38.02-2.463c-12.468,0.74-24.778,3.213-37.041,5.451
				c-12.45,2.271-23.227,7.642-34.656,12.854c-4.884,2.228-9.815,4.083-14.408,6.906c-4.296,2.64-8.056,6.128-11.82,9.449
				C615.365,314.232,618.425,314.385,619.258,313.65L619.258,313.65z"/>
		</g>
	</g>
	<g>
		<g>
			<path fill="#328D2E" d="M619.62,316.023c3.328-2.937,6.636-5.882,10.308-8.39c4.544-3.104,9.684-4.942,14.675-7.155
				c11.55-5.122,22.116-10.426,34.677-12.718c10.735-1.96,21.464-3.955,32.345-4.922c13.253-1.179,26.498-0.188,39.568,2.158
				c1.086,0.195,3.661-1.483,1.859-1.807c-12.598-2.261-25.235-3.222-38.02-2.463c-12.468,0.74-24.778,3.213-37.041,5.451
				c-12.45,2.271-23.227,7.642-34.656,12.854c-4.884,2.228-9.815,4.083-14.408,6.906c-4.296,2.64-8.056,6.128-11.82,9.449
				C615.728,316.605,618.787,316.758,619.62,316.023L619.62,316.023z"/>
		</g>
	</g>
	<g>
		<g>
			<path fill="#006AB4" d="M659.594,359.162c-5.849-12.724-7.549-26.713-8.712-40.53c-0.887-10.538-1.777-21.014-1.398-31.591
				c0.361-10.107,1.455-20.235,3.625-30.119c1.834-8.358,4.698-19.152,12.211-24.255c1.533-1.041-0.844-1.351-1.689-0.775
				c-6.598,4.48-9.642,12.43-11.825,19.782c-3.117,10.496-4.289,21.612-4.907,32.507c-0.575,10.135,0.114,20.034,0.856,30.146
				c1.134,15.457,2.551,31.317,9.102,45.57C657.283,360.826,659.961,359.961,659.594,359.162L659.594,359.162z"/>
		</g>
	</g>
	<g>
		<g>
			<path fill="#006AB4" d="M666.946,361.492c-7.041-4.045-8.635-15.262-9.792-22.449c-2.16-13.415-2.045-27.235-1.262-40.762
				c0.782-13.517,2.544-27.046,5.669-40.228c2.143-9.042,4.921-20.489,11.974-27.124c1.243-1.17-1.415-1.623-2.289-0.801
				c-6.948,6.537-9.712,17.371-11.998,26.271c-3.619,14.09-5.354,28.703-6.193,43.203c-0.789,13.639-0.676,27.523,1.501,41.038
				c1.182,7.342,3.131,18.32,10.279,22.426C665.869,363.661,668.275,362.255,666.946,361.492L666.946,361.492z"/>
		</g>
	</g>
	<g>
		<g>
			<path fill="#006AB4" d="M677.495,365.426c-10.732-18.465-19.548-40.529-22.521-61.729c-0.738-5.259-0.322-10.519-0.3-15.805
				c0.026-6.065-0.081-12.129,0.072-18.194c0.337-13.272,1.997-27.458,10.391-38.264c1.07-1.377-1.525-1.795-2.291-0.809
				c-7.778,10.014-9.953,22.554-10.693,34.916c-0.396,6.62-0.28,13.267-0.254,19.895c0.021,5.573-0.406,11.165,0.076,16.725
				c1.059,12.198,5.323,24.243,9.661,35.603c3.767,9.864,8.038,19.727,13.353,28.87C675.608,367.697,678.219,366.67,677.495,365.426
				L677.495,365.426z"/>
		</g>
	</g>
	<g>
		<g>
			<path fill="#006AB4" d="M671.297,362.893c-5.707-11.721-8.302-24.032-9.654-36.923c-1.182-11.255-2.568-22.517-3.6-33.782
				c-1.776-19.404-2.431-43.976,8.503-61.022c0.8-1.249-1.992-1.229-2.607-0.271c-10.818,16.869-10.218,40.444-8.828,59.655
				c0.835,11.532,2.533,23.029,3.633,34.544c1.284,13.434,3.873,26.328,9.815,38.534
				C669.12,364.779,671.819,363.966,671.297,362.893L671.297,362.893z"/>
		</g>
	</g>
	<g>
		<g>
			<path fill="#006AB4" d="M673.269,364.306c-7.272-3.24-9.095-16.515-10.487-23.252c-2.255-10.904-3.374-22.066-4.184-33.16
				c-1.999-27.369,7.316-55.976,22.054-78.909c0.956-1.488-1.585-2.052-2.318-0.91c-15.434,24.017-24.539,53.251-22.383,81.84
				c0.863,11.442,2.151,22.904,4.569,34.132c1.514,7.023,3.716,18.874,11.196,22.207
				C672.949,366.803,674.885,365.025,673.269,364.306L673.269,364.306z"/>
		</g>
	</g>
	<g>
		<g>
			<path fill="#006AB4" d="M682.611,366.412c-8.031-22.278-14.928-45.103-18.726-68.515c-3.497-21.555-6.65-53.69,13.269-68.727
				c1.486-1.121-0.726-2.112-1.824-1.283c-19.517,14.732-17.782,44.302-14.909,65.839c3.349,25.105,10.885,49.651,19.452,73.42
				C680.33,368.413,683.058,367.65,682.611,366.412L682.611,366.412z"/>
		</g>
	</g>
	<g>
		<g>
			<path fill="#006AB4" d="M687.361,365.912c-7.813-20.823-17.25-40.828-22.978-62.415c-5.972-22.507-9.99-51.913,8.419-69.912
				c0.538-0.526-2.019-0.192-2.469,0.248c-18.053,17.65-14.779,45.658-9.312,67.957c5.521,22.519,15.499,43.26,23.601,64.856
				C684.85,367.25,687.54,366.391,687.361,365.912L687.361,365.912z"/>
		</g>
	</g>
	<g>
		<g>
			<path fill="#006AB4" d="M684.928,366.578c-7.09-19.839-12.451-40.38-14.84-61.339c-3.033-26.629-0.753-56.47,17.728-77.433
				c1.158-1.314-1.446-1.874-2.314-0.891c-17.804,20.197-20.717,48.107-18.649,73.931c1.816,22.691,7.696,45.08,15.338,66.466
				C682.658,368.623,685.388,367.865,684.928,366.578L684.928,366.578z"/>
		</g>
	</g>
	<g>
		<g>
			<path fill="#006AB4" d="M689.336,362.893c-10.565-19.979-16.9-42.181-19.869-64.529c-3.099-23.325-2.183-48.489,8.139-70.026
				c0.342-0.712-2.334-0.434-2.727,0.385c-9.974,20.811-10.967,44.728-8.519,67.321c2.529,23.341,9.247,46.802,20.237,67.584
				C687.054,364.489,689.691,363.565,689.336,362.893L689.336,362.893z"/>
		</g>
	</g>
	<g>
		<g>
			<path fill="#006AB4" d="M696.361,365.412c-10.979-19.696-14.901-44.301-17.47-66.428c-2.817-24.276,5.823-48.836,15.212-70.904
				c0.307-0.719-2.377-0.414-2.723,0.398c-9.059,21.29-17.808,45.394-15.483,68.865c1.195,12.06,3.374,24.05,6.145,35.841
				c2.648,11.269,5.915,22.797,11.581,32.962C694.088,366.979,696.705,366.03,696.361,365.412L696.361,365.412z"/>
		</g>
	</g>
	<g>
		<g>
			<path fill="#006AB4" d="M693.611,365.662c-10.414-17.767-15.177-39.281-17.449-59.554c-1.245-11.103-1.021-22.004,1.942-32.824
				c2.906-10.615,8.005-20.556,12.043-30.758c0.286-0.724-2.401-0.402-2.721,0.404c-4.053,10.238-8.938,20.17-12.044,30.759
				c-3.042,10.369-3.112,20.944-2.117,31.616c1.93,20.701,7.008,43.006,17.607,61.091
				C691.352,367.212,693.95,366.241,693.611,365.662L693.611,365.662z"/>
		</g>
	</g>
	<g>
		<g>
			<path fill="#006AB4" d="M681.776,366.29c-3.276-2.372-4.967-6.704-6.464-10.31c-2.315-5.575-3.977-11.432-5.526-17.257
				c-3.132-11.774-5.518-23.813-7.194-35.881c-1.759-12.658,1.366-24.663,5.754-36.52c5.106-13.803,12.1-28.194,22.147-39.104
				c0.653-0.709-2.016-0.407-2.502,0.121c-9.88,10.728-16.587,24.637-21.853,38.091c-4.68,11.958-8.061,24.501-6.39,37.37
				c1.603,12.341,4.16,24.622,7.299,36.656c1.601,6.137,3.442,12.238,5.876,18.1c1.416,3.41,3.191,7.472,6.284,9.712
				C679.878,367.753,682.297,366.668,681.776,366.29L681.776,366.29z"/>
		</g>
	</g>
	<g>
		<g>
			<path fill="#006AB4" d="M688.626,366.366c-12.042-22.084-17.02-48.789-17.401-73.744c-0.174-11.369,3.218-22.49,7.081-33.066
				c3.961-10.843,8.94-21.347,14.472-31.471c0.762-1.395-2.021-1.487-2.633-0.369c-10.933,20.009-22.034,43.302-21.679,66.584
				c0.38,24.832,5.705,51.375,17.662,73.303C686.751,368.745,689.343,367.681,688.626,366.366L688.626,366.366z"/>
		</g>
	</g>
	<g>
		<g>
			<path fill="#006AB4" d="M703.533,364.815c-7.862-7.438-11.452-19.152-14.357-29.25c-3.268-11.355-5.446-23.195-6.248-34.988
				c-0.75-11.023,0.852-22.402,2.947-33.191c2.611-13.439,6.968-27.53,15.855-38.214c0.546-0.657-2.065-0.279-2.477,0.215
				c-8.75,10.52-12.999,23.957-15.806,37.145c-2.279,10.711-3.771,22.017-3.354,32.986c0.455,11.967,2.879,24.01,5.997,35.538
				c2.861,10.578,6.66,22.929,14.86,30.688C701.471,366.234,703.942,365.203,703.533,364.815L703.533,364.815z"/>
		</g>
	</g>
	<g>
		<g>
			<path fill="#006AB4" d="M714.762,360.987c-5.796-9.094-11.302-18.358-13.504-29.038c-1.132-5.492-1.108-11.42-1.594-17.006
				c-0.531-6.104-1.181-12.184-1.788-18.274c-2.197-22.044,10.986-43.183,19.487-62.555c0.389-0.887-2.343-0.579-2.742,0.33
				c-8.563,19.518-20.439,39.343-19.593,61.355c0.229,5.979,1.216,12.02,1.733,17.99c0.544,6.267,0.739,12.688,1.758,18.893
				c1.761,10.718,7.97,20.395,13.703,29.389C712.729,362.865,715.387,361.968,714.762,360.987L714.762,360.987z"/>
		</g>
	</g>
	<g>
		<g>
			<path fill="#006AB4" d="M705.286,364.327c-7.562-5.624-10.334-16.068-12.304-24.804c-2.451-10.875-3.318-22.127-3.719-33.244
				c-0.924-25.649-1.266-56.276,14.825-77.756c0.124-0.166-2.22-0.12-2.693,0.512c-15.981,21.334-15.613,51.458-14.904,76.893
				c0.32,11.507,1.346,23.062,3.754,34.33c1.884,8.814,4.861,19.326,12.453,24.974C703.28,365.664,705.6,364.561,705.286,364.327
				L705.286,364.327z"/>
		</g>
	</g>
	<g>
		<g>
			<path fill="#006AB4" d="M680.74,227.837c-9.041,13.128-13.987,28.613-16.219,44.299c-1.74,12.23-0.717,24.448,0.494,36.667
				c1.175,11.85,2.695,23.692,4.916,35.395c0.964,5.074,2.098,10.141,3.729,15.046c0.869,2.611,2.035,6.247,4.548,7.776
				c0.72,0.438,3.072-0.673,2.566-0.98c-2.455-1.495-3.484-4.98-4.376-7.529c-1.704-4.872-2.744-9.991-3.729-15.046
				c-2.217-11.372-3.634-22.913-4.818-34.433c-1.228-11.926-2.19-23.788-0.819-35.757c1.833-15.993,7.04-32.235,16.212-45.553
				C683.837,226.861,681.148,227.245,680.74,227.837L680.74,227.837z"/>
		</g>
	</g>
	<g>
		<g>
			<path fill="#006AB4" d="M711.111,362.662c-8.24-18.522-14.807-38.643-17.968-58.7c-4.105-26.056,8.206-49.552,19.165-72.249
				c0.696-1.443-2.076-1.52-2.633-0.367c-10.734,22.233-22.332,44.676-19.695,70.144c1.057,10.209,3.939,20.317,6.846,30.125
				c3.201,10.802,6.966,21.485,11.547,31.782C708.937,364.662,711.653,363.882,711.111,362.662L711.111,362.662z"/>
		</g>
	</g>
	<g>
		<g>
			<path fill="#006AB4" d="M701.861,364.662c-8.179-23.191-13.386-49.04-13.401-73.692c-0.006-10.177,2.043-20.427,4.767-30.188
				c2.959-10.602,7.25-21.646,14.621-30c1.083-1.229-1.577-1.222-2.211-0.504c-13.453,15.248-18.965,38.888-19.866,58.711
				c-0.555,12.199,1.364,24.734,3.362,36.728c2.24,13.452,5.452,26.813,9.99,39.681
				C699.479,366.403,702.197,365.614,701.861,364.662L701.861,364.662z"/>
		</g>
	</g>
	<g>
		<g>
			<path fill="#006AB4" d="M708.361,363.229c-12.842-17.1-15.447-43.6-12.082-64.156c3.612-22.066,5.852-47.076,17.812-66.54
				c0.18-0.293-2.286-0.175-2.697,0.494c-11.789,19.187-14.143,43.783-17.657,65.577c-3.396,21.052-1.326,47.765,11.887,65.359
				C706.112,364.614,708.548,363.478,708.361,363.229L708.361,363.229z"/>
		</g>
	</g>
	<g>
		<g>
			<path fill="#006AB4" d="M712.282,361.397c-5.383-6.744-6.614-16.453-7.678-24.729c-1.213-9.434-1.499-18.968-1.894-28.462
				c-0.528-12.724,0.227-24.688,3.515-37.061c3.298-12.406,8.421-24.275,13.117-36.192c0.189-0.482-2.426-0.216-2.701,0.482
				c-4.916,12.478-10.105,24.866-13.557,37.853c-3.143,11.824-3.632,23.495-3.112,35.652c0.427,9.954,0.795,19.909,2.065,29.801
				c1.027,7.995,2.492,17.107,7.664,23.587C710.113,362.845,712.698,361.918,712.282,361.397L712.282,361.397z"/>
		</g>
	</g>
	<g>
		<g>
			<path fill="#006AB4" d="M707.052,363.18c-6.833-2.738-7.711-14.501-8.395-20.603c-1.201-10.723-0.847-21.649-0.194-32.396
				c0.55-9.04,1.348-17.898,3.873-26.633c4.744-16.406,13.735-31.298,21.363-46.455c0.661-1.313-2.105-1.171-2.59-0.209
				c-7.745,15.392-16.43,30.377-21.532,46.928c-2.958,9.593-3.512,19.737-4.049,29.703c-0.589,10.913-0.694,21.979,0.764,32.83
				c0.847,6.301,2.376,15.822,9.141,18.534C706.463,365.292,708.631,363.813,707.052,363.18L707.052,363.18z"/>
		</g>
	</g>
	<g>
		<g>
			<path fill="#006AB4" d="M712.361,361.496c-4.341-21.479-10.654-43.76-7.091-65.81c3.169-19.613,12.535-38.731,20.53-56.751
				c0.638-1.436-2.125-1.422-2.617-0.313c-8.16,18.391-16.945,37.384-20.687,57.272c-4.119,21.892,2.817,45.011,7.126,66.335
				C709.88,363.501,712.623,362.792,712.361,361.496L712.361,361.496z"/>
		</g>
	</g>
	<g>
		<g>
			<path fill="#006AB4" d="M711.003,362.455c-6.283-5.917-8.411-14.881-9.592-23.123c-1.672-11.681-0.998-23.705,0.265-35.39
				c1.233-11.41,3.376-22.737,6.229-33.85c2.242-8.729,4.872-17.687,9.234-25.622c0.7-1.272-2.074-1.138-2.588-0.203
				c-4.271,7.771-6.845,16.512-9.127,25.033c-3.168,11.831-5.323,23.952-6.639,36.124c-1.24,11.476-1.613,23.173-0.112,34.642
				c1.091,8.34,3.475,17.574,9.808,23.537C709.294,364.369,711.884,363.284,711.003,362.455L711.003,362.455z"/>
		</g>
	</g>
	<g>
		<g>
			<path fill="#006AB4" d="M709.861,362.412c-4.274-25.816-1.24-53.039,0.311-79.003c0.984-16.509,1.169-33.819,11.588-47.511
				c0.711-0.936-2.03-0.666-2.535-0.004c-10.229,13.442-10.683,30.081-11.689,46.333c-1.643,26.526-4.779,54.535-0.412,80.919
				C707.266,364.007,710.019,363.361,709.861,362.412L709.861,362.412z"/>
		</g>
	</g>
	<g>
		<g>
			<path fill="#006AB4" d="M716.361,359.912c-3.542-7.423-4.535-15.858-5.154-23.969c-0.834-10.94-0.383-22.003,0.679-32.909
				c2.138-21.964,4.502-44.085,14.717-63.958c0.319-0.622-2.32-0.373-2.721,0.406c-10.254,19.951-12.419,41.95-14.717,63.959
				c-1.05,10.057-1.342,20.215-0.874,30.313c0.418,9.014,1.399,18.649,5.332,26.892
				C714.017,361.472,716.673,360.566,716.361,359.912L716.361,359.912z"/>
		</g>
	</g>
	<g>
		<g>
			<path fill="#006AB4" d="M697.814,366.264c-5.243-12.132-7.475-25.133-9.34-38.139c-1.666-11.618-4.193-23.11-2.886-34.873
				c2.452-22.044,11.793-42.985,19.27-63.653c0.316-0.873-2.413-0.521-2.732,0.361c-7.52,20.786-16.468,41.555-19.27,63.653
				c-1.436,11.316,1.081,22.36,2.64,33.538c1.892,13.57,4.111,27.19,9.58,39.847C695.474,367.918,698.161,367.065,697.814,366.264
				L697.814,366.264z"/>
		</g>
	</g>
	<g>
		<g>
			<path fill="#006AB4" d="M699.745,364.991c-4.762-7.471-3.917-18.591-3.736-27.024c0.233-10.881,1.316-21.728,2.129-32.575
				c0.75-10.003,0.091-19.978,1.837-29.896c2.596-14.748,8.331-29.121,15.327-42.307c0.729-1.374-2.051-1.39-2.619-0.318
				c-6.885,12.976-12.188,26.857-15.18,41.255c-2.228,10.724-1.405,21.672-2.22,32.539c-0.847,11.306-1.921,22.597-2.094,33.94
				c-0.123,8.132-0.508,18.445,4.05,25.596C697.908,367.25,700.518,366.204,699.745,364.991L699.745,364.991z"/>
		</g>
	</g>
	<g>
		<g>
			<path fill="#006AB4" d="M695.248,365.435c-4.119-3.859-5.296-10.647-6.278-15.924c-1.965-10.553-2.024-21.462-1.527-32.149
				c1.387-29.778,9.084-59.339,21.354-86.44c0.638-1.408-2.125-1.354-2.609-0.283c-12.579,27.782-20.161,57.874-21.58,88.368
				c-0.484,10.404-0.168,20.963,1.624,31.239c0.94,5.394,2.301,12.44,6.505,16.379C693.614,367.447,696.201,366.327,695.248,365.435
				L695.248,365.435z"/>
		</g>
	</g>
	<g>
		<g>
			<path fill="#006AB4" d="M691.506,366.463c-6.764-8.853-8.69-20.811-9.813-31.603c-1.497-14.381-0.866-28.995,0.497-43.36
				c1.269-13.361,3.392-26.686,6.543-39.734c1.791-7.416,3.599-17.529,8.879-23.431c1.119-1.249-1.535-1.397-2.238-0.611
				c-5.193,5.803-7.077,15.241-8.945,22.521c-3.49,13.6-5.613,27.577-6.992,41.537c-1.436,14.532-1.886,29.261-0.481,43.813
				c1.056,10.938,3.186,23.049,10.024,32.001C689.632,368.449,692.264,367.456,691.506,366.463L691.506,366.463z"/>
		</g>
	</g>
	<g>
		<path d="M755.356,288.291c0,0,54.352-66.9,5.479-94.084c-3.321-1.846-33.793-11.392-14.159,5.525
			c10.349,8.921-37.605,3.945-12.57-13.249c10.657-8.311,32.346-0.856,42.646,10.847c22.147,26.021-2.145,69.977-20.325,95.025"/>
	</g>
</g>
</svg>
